<?xml version="1.0" standalone="no"?>
<!DOCTYPE svg PUBLIC "-//W3C//DTD SVG 20010904//EN"
 "http://www.w3.org/TR/2001/REC-SVG-20010904/DTD/svg10.dtd">
<svg version="1.0" xmlns="http://www.w3.org/2000/svg"
 width="512.000000pt" height="512.000000pt" viewBox="0 0 512.000000 512.000000"
 preserveAspectRatio="xMidYMid meet">
<metadata>
Created by potrace 1.14, written by Peter Selinger 2001-2017
</metadata>
<g transform="translate(0.000000,512.000000) scale(0.100000,-0.100000)"
fill="#000000" stroke="none">
<path d="M2465 5061 c5 -9 2 -12 -11 -9 -11 2 -25 -3 -32 -12 -8 -8 -11 -10
-8 -4 3 7 -3 14 -14 17 -11 3 -18 1 -15 -3 3 -5 1 -11 -5 -15 -5 -3 -10 -1
-10 4 0 6 -5 11 -11 11 -5 0 -8 -4 -5 -8 3 -5 -1 -9 -9 -9 -8 0 -12 5 -8 10 3
5 -4 4 -15 -2 -27 -14 -35 -14 -26 2 6 9 4 9 -7 1 -8 -6 -33 -11 -57 -10 -30
1 -41 -2 -38 -11 3 -7 -1 -10 -9 -6 -8 3 -12 10 -8 17 4 7 1 7 -9 -1 -8 -7
-18 -10 -22 -6 -4 4 -4 -1 0 -12 7 -18 6 -18 -9 -6 -16 13 -22 8 -18 -13 1 -5
-4 -4 -11 2 -15 12 -35 11 -57 -2 -9 -6 -12 -5 -8 1 3 5 -1 10 -9 10 -8 0 -13
-6 -10 -14 3 -7 2 -12 -2 -12 -4 1 -9 0 -12 -1 -20 -7 -39 -7 -34 2 4 6 -3 5
-15 -2 -18 -9 -26 -9 -39 2 -14 11 -15 10 -8 -7 4 -11 4 -16 0 -12 -4 4 -16
-1 -27 -10 -11 -10 -17 -12 -13 -5 9 15 -10 17 -19 2 -5 -8 -12 -7 -23 2 -10
8 -13 9 -9 1 4 -6 3 -14 -3 -18 -5 -3 -10 0 -10 7 -1 7 -6 3 -13 -10 -9 -16
-16 -19 -24 -11 -8 8 -13 8 -17 0 -4 -6 -12 -11 -17 -11 -6 0 -7 5 -3 12 4 7
3 8 -5 4 -6 -4 -9 -11 -6 -16 3 -5 1 -11 -5 -15 -5 -3 -10 0 -10 7 -1 9 -4 8
-13 -3 -7 -9 -17 -14 -24 -12 -6 2 -14 -1 -18 -6 -3 -6 -14 -11 -24 -11 -25 0
-72 -25 -64 -33 3 -4 -1 -7 -11 -7 -10 0 -15 5 -11 13 4 6 0 4 -8 -6 -9 -10
-19 -19 -24 -20 -4 -1 -7 -5 -6 -9 2 -4 -3 -5 -11 -2 -8 3 -17 1 -21 -5 -3 -6
-11 -11 -16 -11 -6 0 -7 5 -3 12 5 7 3 8 -5 4 -7 -5 -10 -15 -7 -23 4 -11 1
-13 -14 -8 -12 4 -20 2 -20 -5 0 -6 -4 -8 -10 -5 -5 3 -10 -1 -10 -9 0 -9 -5
-16 -11 -16 -5 0 -7 5 -3 11 3 6 -8 4 -24 -5 -17 -9 -34 -20 -37 -26 -4 -6
-11 -8 -16 -4 -5 3 -8 0 -7 -8 2 -7 -3 -12 -9 -11 -7 2 -13 -2 -13 -8 0 -6 -7
-8 -16 -5 -12 5 -15 2 -10 -10 5 -12 2 -15 -10 -10 -12 5 -15 2 -10 -10 5 -14
4 -15 -9 -4 -12 10 -15 10 -15 -5 0 -11 -5 -15 -15 -11 -9 3 -15 0 -15 -10 0
-10 -6 -14 -15 -10 -8 3 -15 1 -15 -4 0 -5 -9 -11 -20 -15 -11 -3 -19 -9 -17
-13 1 -4 -2 -8 -7 -9 -5 0 -13 -8 -18 -17 -5 -9 -15 -16 -22 -16 -8 0 -19 -7
-26 -15 -7 -8 -16 -12 -21 -9 -5 3 -6 -3 -2 -13 3 -10 3 -15 -2 -11 -8 8 -55
-40 -55 -56 0 -5 -3 -6 -6 -3 -4 4 -3 12 2 20 5 7 2 5 -7 -5 -9 -9 -20 -14
-24 -10 -5 4 -5 2 -1 -5 4 -7 -6 -21 -23 -34 -17 -12 -27 -27 -24 -32 4 -6 1
-7 -6 -3 -14 9 -51 -21 -51 -41 0 -8 -5 -11 -12 -7 -8 5 -9 2 -5 -10 4 -9 3
-14 -2 -11 -5 3 -20 -5 -33 -17 -13 -13 -15 -16 -4 -8 19 15 19 15 0 -12 -10
-14 -23 -25 -29 -25 -5 1 -9 -6 -9 -16 2 -15 -1 -16 -14 -5 -12 10 -14 10 -8
1 4 -7 2 -13 -3 -13 -6 0 -10 -6 -9 -12 2 -7 -3 -12 -9 -10 -12 2 -17 -10 -14
-30 0 -5 -6 -8 -15 -8 -11 0 -15 -6 -11 -20 3 -11 1 -18 -3 -15 -5 3 -16 2
-25 -1 -13 -5 -14 -8 -3 -15 10 -7 8 -9 -6 -9 -13 0 -17 -5 -13 -20 3 -10 2
-19 -2 -18 -19 2 -31 -3 -26 -12 3 -5 2 -10 -2 -10 -5 0 -14 -9 -21 -21 -11
-17 -11 -20 0 -13 10 6 10 4 -1 -9 -9 -12 -17 -14 -26 -7 -9 7 -11 2 -10 -20
1 -17 -2 -27 -8 -23 -6 4 -8 0 -4 -10 4 -12 2 -14 -11 -10 -9 3 -14 3 -10 -2
4 -4 0 -14 -10 -22 -9 -8 -11 -12 -4 -8 6 3 12 1 12 -4 0 -11 -15 -15 -35 -11
-5 1 -7 -2 -3 -6 4 -4 2 -14 -5 -22 -8 -11 -8 -14 0 -9 6 4 15 2 19 -4 4 -8 3
-9 -4 -5 -7 4 -12 2 -12 -4 0 -6 -4 -9 -9 -5 -12 6 -25 -31 -16 -45 4 -6 -1
-7 -12 -3 -16 6 -17 5 -3 -12 8 -10 10 -16 4 -12 -7 4 -14 -2 -17 -14 -4 -15
-11 -20 -23 -15 -15 6 -15 4 -3 -10 11 -14 11 -18 -4 -29 -20 -14 -23 -30 -4
-19 6 4 4 -2 -6 -14 -11 -12 -16 -26 -11 -33 4 -7 3 -10 -3 -6 -6 4 -17 -1
-24 -10 -10 -12 -10 -14 -1 -9 6 4 12 2 12 -3 0 -6 -5 -11 -12 -11 -6 0 -8 -3
-5 -7 4 -3 -1 -12 -11 -20 -16 -12 -16 -13 3 -7 17 5 17 3 -4 -14 -18 -15 -21
-21 -10 -25 10 -4 7 -8 -9 -13 -20 -6 -21 -8 -6 -19 15 -11 15 -13 -7 -28 -15
-11 -18 -17 -9 -17 10 0 11 -3 4 -8 -6 -4 -10 -15 -9 -24 2 -10 -2 -16 -8 -15
-6 1 -12 -9 -12 -23 0 -14 -4 -31 -8 -37 -5 -7 -5 -13 -1 -13 4 0 0 -6 -11
-13 -12 -9 -14 -16 -7 -21 8 -5 5 -18 -9 -42 -11 -20 -15 -33 -9 -29 5 3 10 2
10 -4 0 -5 -6 -12 -12 -14 -10 -4 -10 -8 1 -15 11 -8 11 -11 -4 -13 -11 -3
-19 -14 -20 -27 -1 -16 2 -21 13 -17 12 4 13 3 2 -10 -7 -8 -15 -13 -19 -11
-4 3 -6 -8 -5 -25 1 -16 -3 -29 -9 -29 -7 0 -6 -5 3 -11 11 -8 12 -12 3 -16
-7 -2 -13 -9 -13 -14 0 -6 6 -7 13 -3 6 4 4 -2 -6 -13 -9 -11 -14 -23 -10 -27
10 -9 11 -46 2 -46 -5 0 -5 -7 -2 -17 4 -9 2 -14 -3 -10 -6 3 -11 -4 -11 -16
-2 -16 0 -18 7 -8 5 9 7 1 6 -23 -2 -21 -9 -41 -16 -46 -10 -6 -8 -9 6 -13 14
-3 15 -5 3 -6 -13 -1 -15 -9 -9 -46 4 -24 4 -42 1 -40 -9 5 -6 -163 2 -171 3
-4 2 -15 -4 -25 -7 -14 -6 -19 2 -19 8 0 7 -5 -2 -17 -11 -12 -11 -17 -2 -20
8 -3 9 -12 3 -28 -6 -16 -6 -27 2 -31 7 -5 8 -3 3 6 -6 9 -4 11 4 5 9 -5 10
-10 2 -18 -13 -13 -15 -31 -3 -23 5 3 9 -1 9 -9 0 -8 -3 -12 -7 -10 -4 2 -7
-2 -7 -10 0 -8 4 -12 8 -10 3 3 9 -8 12 -23 3 -15 1 -28 -4 -30 -5 -2 -3 -13
3 -25 15 -27 19 -49 8 -42 -15 9 -5 -22 13 -39 20 -21 23 -33 3 -17 -11 9 -16
9 -22 0 -5 -8 -3 -9 6 -4 10 6 12 4 7 -9 -4 -10 -1 -19 7 -22 8 -3 17 -13 20
-21 5 -13 4 -13 -7 -4 -12 9 -13 5 -4 -28 6 -24 15 -37 21 -33 6 3 4 -3 -4
-13 -8 -10 -10 -16 -3 -12 6 4 14 3 18 -3 3 -5 -2 -10 -12 -10 -17 -1 -17 -1
0 -11 14 -8 15 -14 5 -32 -11 -21 -10 -21 7 -7 11 9 16 10 11 3 -4 -8 -2 -13
5 -13 7 0 4 -7 -7 -16 -10 -8 -13 -13 -7 -9 7 3 13 1 13 -5 0 -6 5 -8 12 -4
10 6 10 4 0 -8 -10 -13 -10 -17 0 -21 10 -4 10 -6 -1 -6 -9 -1 -8 -6 6 -18 10
-10 13 -14 6 -9 -10 6 -12 4 -7 -8 3 -9 11 -16 17 -16 6 0 8 -3 4 -6 -3 -4 1
-20 9 -36 8 -16 12 -34 8 -40 -5 -7 -3 -8 6 -3 10 6 12 4 7 -8 -3 -10 -2 -17
3 -17 5 0 7 -7 4 -15 -4 -10 0 -15 12 -16 18 0 18 -1 0 -8 -19 -7 -19 -8 2
-13 15 -4 20 -11 16 -22 -3 -9 -1 -16 5 -16 6 0 11 -9 11 -20 0 -11 6 -20 13
-20 8 0 7 -4 -3 -10 -11 -7 -11 -10 -2 -10 7 0 10 -4 7 -10 -4 -6 1 -7 12 -3
10 3 15 3 11 -2 -4 -4 -2 -15 5 -23 9 -13 9 -14 -1 -8 -14 8 -15 5 -6 -18 3
-9 10 -16 16 -16 5 0 6 5 2 12 -4 7 -3 8 5 4 6 -4 8 -12 5 -18 -4 -6 0 -14 7
-19 12 -7 12 -9 0 -9 -10 0 -8 -5 6 -18 11 -9 19 -25 17 -35 -1 -9 1 -15 6
-12 4 3 14 -3 21 -12 10 -11 10 -14 2 -9 -9 5 -11 2 -7 -8 3 -9 10 -14 14 -11
11 7 22 -24 13 -37 -4 -7 -1 -8 7 -3 10 6 12 4 7 -8 -3 -9 -3 -16 1 -16 20 3
33 -2 27 -11 -3 -5 -1 -18 4 -27 6 -10 11 -14 11 -8 0 5 8 -2 17 -15 17 -24
19 -28 22 -50 0 -5 8 -10 17 -10 8 0 12 -5 9 -10 -3 -6 -1 -10 4 -10 6 0 11
-5 11 -11 0 -5 -5 -7 -12 -3 -7 4 -8 3 -4 -5 4 -6 11 -9 16 -6 4 3 14 -3 21
-12 12 -14 12 -16 -1 -8 -8 5 2 -7 22 -27 21 -19 38 -39 38 -45 0 -6 8 -17 17
-24 17 -13 17 -13 3 6 -14 19 -14 19 3 6 14 -11 15 -16 5 -29 -10 -12 -10 -14
-1 -8 15 8 67 -39 58 -54 -3 -5 4 -7 16 -5 17 3 19 2 9 -10 -10 -11 -7 -15 14
-21 16 -4 28 -15 32 -30 4 -15 12 -23 22 -22 9 2 17 -4 17 -12 0 -8 16 -25 35
-38 35 -23 77 -61 53 -48 -7 4 -13 5 -13 2 0 -3 10 -10 21 -17 17 -9 20 -8 14
3 -3 7 0 5 8 -4 8 -10 17 -15 21 -11 4 4 4 -1 0 -12 -6 -15 -4 -17 9 -12 11 4
17 1 17 -8 0 -8 7 -15 15 -15 8 0 15 -4 15 -10 0 -5 4 -10 10 -10 16 0 49 -33
43 -43 -3 -5 4 -4 16 2 17 10 20 9 15 -4 -4 -8 -1 -15 6 -15 6 0 8 -5 5 -10
-3 -6 1 -10 10 -10 10 0 14 5 10 13 -4 6 1 3 9 -7 9 -11 16 -16 16 -10 1 5 7
-2 15 -16 9 -15 14 -19 15 -10 0 13 2 13 9 0 6 -8 7 -19 4 -25 -3 -5 0 -4 7 2
11 10 17 8 32 -15 10 -15 18 -22 18 -17 0 6 -3 15 -8 21 -4 5 0 2 8 -7 9 -8
22 -13 30 -11 8 3 12 1 8 -3 -4 -4 0 -14 10 -21 13 -9 20 -10 31 -1 11 10 13
8 6 -13 -7 -21 -5 -23 6 -13 11 8 17 8 26 -2 6 -7 9 -16 5 -21 -4 -4 -2 -4 5
-1 16 10 44 -3 36 -17 -4 -6 1 -5 10 3 12 9 17 10 17 2 0 -7 5 -9 10 -6 6 3
10 -1 10 -11 0 -14 3 -14 15 -4 13 11 14 10 10 -2 -5 -12 0 -15 20 -12 19 2
25 -2 21 -11 -3 -9 3 -12 20 -10 13 1 24 -2 24 -6 0 -5 7 -9 15 -9 8 0 15 -4
15 -9 0 -5 14 -8 30 -6 17 2 30 -1 30 -6 0 -6 -6 -7 -12 -3 -7 4 -10 3 -5 -1
7 -9 23 -13 62 -18 11 -1 23 -7 28 -14 4 -7 14 -10 22 -7 9 4 15 0 15 -7 0
-11 3 -11 10 1 9 13 13 12 28 -6 14 -17 22 -20 37 -12 13 8 16 8 10 -2 -6 -10
-1 -12 19 -8 14 3 26 2 26 -2 0 -4 7 -11 16 -14 14 -5 15 -4 4 9 -16 19 -6 20
13 0 8 -8 31 -17 51 -19 19 -2 40 -7 46 -11 5 -3 10 -2 10 2 0 5 9 9 19 9 11
0 17 -5 14 -10 -4 -5 1 -7 12 -2 15 5 16 4 6 -8 -10 -11 -9 -14 1 -12 7 1 18
5 25 9 6 4 14 3 17 -2 4 -5 14 -8 24 -6 9 1 25 -2 34 -7 11 -5 18 -5 18 1 0 6
11 6 30 1 18 -5 32 -5 35 1 4 5 12 9 18 8 9 0 9 -2 0 -6 -26 -10 -12 -22 13
-13 20 8 25 7 21 -2 -3 -8 4 -13 18 -13 16 0 21 4 17 15 -5 13 -3 13 12 1 19
-16 178 -23 207 -10 8 4 21 4 29 -1 9 -6 17 -5 22 3 6 9 8 8 8 -2 0 -11 4 -10
16 5 8 10 13 14 10 8 -7 -15 42 -25 51 -11 3 5 2 7 -3 4 -6 -3 -16 -1 -24 4
-13 9 -13 10 0 6 8 -2 23 0 32 5 14 6 16 5 12 -7 -5 -11 -2 -13 10 -9 9 3 13
11 10 16 -4 6 3 5 15 -1 11 -7 21 -8 21 -3 0 4 15 7 32 6 18 -1 39 3 47 9 10
8 13 8 8 1 -4 -7 3 -11 18 -11 14 0 28 4 32 10 4 6 1 7 -7 2 -9 -5 -11 -4 -6
4 6 9 11 9 24 -1 9 -8 13 -8 9 -2 -4 7 0 15 9 18 8 3 12 2 9 -4 -3 -5 4 -8 15
-7 11 1 20 5 20 9 0 4 10 5 22 3 12 -3 26 1 30 8 6 9 8 9 8 0 0 -7 5 -13 11
-13 5 0 8 4 4 9 -3 5 0 13 6 17 6 3 15 0 20 -7 7 -11 9 -9 9 6 0 15 2 17 9 6
5 -8 11 -9 15 -3 3 6 16 8 28 4 16 -4 20 -2 16 10 -4 8 0 15 8 15 7 0 11 -3 9
-7 -2 -3 5 -6 15 -6 13 0 16 4 10 11 -7 8 1 11 26 10 26 -2 34 1 30 12 -4 9
-2 11 7 6 16 -10 38 -13 33 -4 -2 3 7 11 20 18 18 8 23 8 18 0 -3 -7 1 -4 9 5
10 13 17 14 25 6 8 -8 13 -7 17 4 4 9 16 14 30 13 18 -2 22 1 18 13 -4 10 -2
13 5 8 7 -4 12 -2 12 4 0 6 4 8 10 5 5 -3 19 1 31 9 12 8 27 12 34 10 7 -3 16
0 21 7 5 8 3 10 -6 4 -8 -5 -11 -4 -6 3 4 6 14 8 23 5 11 -4 14 -2 9 5 -4 7 1
10 13 7 11 -2 22 3 25 12 4 9 13 13 22 9 9 -3 12 -2 9 5 -4 6 0 9 11 7 10 -2
19 3 20 10 3 25 5 27 14 12 7 -11 10 -11 10 -2 0 7 5 10 10 7 6 -3 10 2 10 12
0 15 2 16 10 3 6 -10 10 -11 10 -2 0 6 7 12 16 12 8 0 13 4 10 8 -2 4 4 14 16
21 14 9 18 9 13 1 -4 -7 4 -4 19 5 14 10 26 21 26 26 0 5 7 6 15 3 9 -4 15 0
15 10 0 9 3 15 8 15 19 -3 33 2 27 11 -4 6 6 10 22 10 22 0 25 2 13 10 -14 9
-13 11 10 14 6 0 15 7 19 15 5 8 14 10 22 6 9 -6 11 -3 6 9 -4 10 -3 15 3 11
5 -3 25 10 44 30 23 23 36 31 40 23 4 -7 4 -3 2 9 -2 12 -1 22 3 21 18 -2 32
3 27 11 -3 5 1 11 9 14 10 4 12 1 8 -11 -3 -9 4 -5 15 10 12 14 22 31 22 37 0
6 6 10 13 8 6 -1 11 3 10 10 -1 6 11 17 27 24 17 8 24 16 18 20 -6 4 -2 10 11
14 11 3 21 10 21 14 0 4 7 16 16 27 14 18 14 18 3 -6 l-12 -25 24 25 c15 15
21 28 14 32 -10 7 -1 12 18 9 4 0 7 6 7 15 0 8 4 13 9 9 5 -3 12 4 16 15 4 11
11 17 17 14 7 -5 9 -1 5 9 -4 11 1 18 14 22 11 4 16 11 13 17 -5 8 -1 9 10 5
14 -6 15 -3 6 13 -6 11 -7 20 -3 19 19 -3 33 2 30 10 -1 5 7 17 18 26 11 9 13
14 5 10 -8 -4 -3 3 13 15 15 12 32 30 37 41 9 15 7 18 -7 13 -10 -2 -8 1 5 7
13 7 21 18 18 26 -3 8 -1 11 4 8 6 -3 10 -1 10 6 0 6 8 18 18 25 9 7 18 17 18
23 1 6 2 19 3 29 1 15 3 15 11 2 9 -13 10 -13 11 0 1 8 1 18 0 23 0 4 4 7 10
7 8 0 8 4 0 14 -9 11 -8 14 6 12 10 0 18 6 18 14 0 8 9 21 20 28 l20 13 -20
-5 c-19 -6 -19 -5 -2 8 9 7 17 21 17 30 0 11 5 14 12 10 8 -5 9 0 6 14 -4 12
-2 20 3 16 5 -3 9 4 9 16 0 12 4 18 10 15 6 -4 7 1 3 11 -4 11 -3 15 5 10 7
-4 10 1 7 14 -2 13 1 20 11 20 8 0 14 5 14 11 0 5 -5 7 -11 3 -6 -3 -3 5 6 20
10 14 14 26 9 26 -4 0 2 9 14 20 12 11 19 27 16 35 -4 8 -1 15 6 15 6 0 8 4 5
10 -3 5 0 20 8 32 7 13 13 33 12 46 -2 18 0 20 12 11 11 -10 12 -8 7 5 -3 9 0
24 7 33 12 14 12 16 -1 8 -12 -7 -13 -6 -3 7 7 8 10 18 6 21 -3 4 0 7 7 7 10
0 9 5 -3 18 -14 15 -15 19 -2 19 8 0 12 -4 9 -9 -3 -4 -3 -8 1 -8 12 0 22 45
11 52 -8 6 -8 8 1 8 7 0 10 7 6 17 -5 12 -3 14 8 8 11 -7 12 -6 2 6 -8 10 -9
19 -1 29 8 12 9 12 4 -3 -3 -11 -2 -16 5 -12 5 4 7 15 4 25 -3 11 -1 29 5 41
7 12 8 19 3 16 -4 -3 -8 5 -8 18 0 13 3 21 8 18 4 -2 7 1 7 7 0 6 5 8 13 4 8
-5 8 -2 -2 9 -11 14 -11 17 0 17 11 0 11 2 0 9 -11 7 -12 13 -4 23 6 7 9 23 7
36 -2 13 0 21 4 18 4 -2 9 4 9 15 1 11 -2 17 -6 15 -5 -3 -6 5 -3 19 2 13 12
26 21 28 14 4 14 5 -1 6 -10 0 -18 6 -18 12 0 5 6 7 13 3 7 -5 6 0 -3 11 -12
15 -12 17 -1 10 11 -7 13 -1 8 28 -4 25 -2 37 6 37 7 0 6 4 -3 10 -8 5 -10 10
-5 10 12 0 12 100 0 119 -5 9 -4 12 2 8 10 -7 9 125 -2 142 -3 6 -1 11 5 11 8
0 9 7 5 18 -4 9 -10 23 -13 31 -3 8 -1 12 5 8 12 -7 10 29 -2 40 -4 5 -5 2 0
-6 6 -10 4 -12 -4 -7 -9 6 -9 11 0 22 6 8 7 14 2 14 -5 0 -8 20 -8 45 1 25 -1
48 -5 50 -4 3 -6 16 -5 30 2 14 -1 25 -7 25 -6 0 -5 6 2 15 7 9 8 15 2 15 -5
0 -12 7 -15 14 -4 9 -1 14 6 12 7 -1 9 -1 4 1 -4 3 -5 9 -2 13 3 5 0 12 -6 16
-8 4 -9 3 -5 -4 4 -7 2 -12 -3 -12 -14 0 -14 13 1 28 9 9 9 12 -1 12 -7 0 -9
5 -6 10 4 6 1 18 -7 27 -9 12 -9 15 0 9 6 -4 12 -2 12 3 0 6 -7 11 -15 11 -18
0 -20 16 -3 26 7 5 8 3 3 -6 -5 -9 -4 -11 4 -6 6 4 9 12 5 17 -3 5 -10 6 -16
3 -7 -5 -9 -1 -5 9 4 10 2 17 -5 17 -7 0 -6 5 2 15 10 12 9 16 -3 21 -9 3 -18
12 -21 19 -3 10 0 12 11 8 11 -4 14 -2 9 5 -4 7 -15 12 -24 12 -10 0 -13 3 -7
8 19 13 4 69 -15 57 -4 -3 -7 9 -6 26 1 17 -5 39 -16 51 -22 26 -22 29 -1 21
11 -4 14 -3 9 5 -4 7 -14 12 -23 12 -13 0 -13 3 -3 15 10 12 9 16 -3 21 -9 3
-18 13 -21 21 -6 14 -4 14 11 2 17 -13 17 -13 1 7 -20 23 -24 39 -6 28 7 -4 8
-3 4 5 -5 8 -12 9 -19 2 -9 -7 -12 -2 -14 16 0 14 -7 29 -15 34 -10 6 -10 9 0
9 7 0 4 8 -8 20 -11 11 -20 29 -20 39 0 11 -4 21 -10 23 -5 2 -11 12 -13 23
-4 29 -39 85 -49 79 -7 -5 -13 27 -9 49 1 5 -3 6 -9 2 -5 -3 -10 1 -10 9 0 9
-5 16 -11 16 -6 0 -8 7 -5 16 3 8 2 13 -3 10 -5 -3 -15 2 -22 11 -10 12 -10
14 -1 9 6 -4 12 -3 12 1 0 5 -10 14 -22 19 -13 6 -17 9 -9 7 8 -2 2 8 -12 23
-15 15 -27 31 -27 35 0 5 -7 9 -16 9 -8 0 -12 4 -9 10 3 5 -6 21 -22 35 -20
18 -22 23 -9 18 13 -4 17 -3 12 5 -4 7 -14 12 -22 12 -8 0 -14 7 -14 16 0 9
-5 12 -12 8 -8 -5 -9 -2 -5 10 4 10 3 15 -3 11 -6 -3 -10 -1 -10 4 0 6 -8 11
-17 12 -12 0 -13 2 -5 6 9 4 7 10 -7 22 -12 10 -17 22 -13 26 4 5 0 6 -10 2
-12 -4 -21 4 -33 29 -9 19 -20 34 -26 34 -5 0 -20 10 -32 21 -12 12 -15 18 -7
14 13 -8 13 -7 1 8 -7 9 -20 17 -27 17 -8 0 -14 7 -14 16 0 10 -6 14 -15 10
-8 -3 -14 0 -12 7 1 7 -3 11 -9 10 -7 -1 -10 6 -7 17 3 12 0 20 -6 20 -7 0 -9
-4 -6 -10 3 -5 1 -10 -4 -10 -6 0 -11 4 -11 8 0 15 -37 52 -44 45 -3 -3 -6 1
-6 11 0 9 -4 15 -9 12 -5 -3 -11 1 -15 9 -3 8 -13 15 -21 15 -9 0 -13 5 -10
10 3 6 -1 10 -9 10 -9 0 -16 5 -16 11 0 5 -4 8 -9 5 -11 -7 -53 29 -44 38 3 3
-1 6 -10 6 -9 0 -17 5 -17 12 0 6 -3 8 -7 5 -3 -4 -12 2 -20 12 -8 12 -20 17
-33 14 -12 -3 -20 0 -20 6 0 7 5 9 12 5 7 -4 8 -3 4 5 -4 6 -11 9 -16 6 -5 -3
-21 6 -36 20 -28 26 -40 32 -29 15 3 -6 -1 -7 -9 -4 -9 3 -13 10 -10 15 3 5 0
9 -6 9 -6 0 -9 4 -6 8 3 5 -1 9 -9 9 -8 0 -11 -5 -8 -11 4 -6 -1 -5 -10 3 -9
7 -15 17 -12 21 3 5 -6 7 -20 5 -16 -1 -25 3 -25 11 0 8 -9 14 -20 14 -11 0
-20 4 -20 10 0 5 -7 7 -15 4 -11 -5 -13 -2 -9 10 7 18 -15 19 -28 1 -5 -6 -8
-5 -8 3 0 7 -4 10 -10 7 -6 -3 -7 1 -4 10 4 11 2 14 -9 10 -8 -4 -21 1 -30 9
-18 19 -31 21 -21 4 5 -7 3 -8 -5 -4 -7 5 -10 15 -7 23 4 9 2 11 -6 6 -19 -11
-48 -11 -41 0 4 6 0 8 -10 4 -12 -4 -14 -2 -10 11 3 9 3 14 -1 10 -5 -4 -18
-3 -31 2 -15 6 -27 4 -34 -3 -9 -9 -11 -8 -6 6 5 12 2 17 -11 19 -11 0 -26 2
-34 2 -8 1 -14 7 -13 12 1 6 -4 11 -12 11 -7 0 -11 -7 -8 -16 2 -9 -1 -7 -8 4
-18 28 -31 35 -46 23 -10 -8 -13 -7 -13 3 0 11 -2 11 -8 1 -7 -10 -14 -8 -32
8 -15 13 -31 18 -46 14 -14 -4 -24 -2 -24 5 0 7 -8 8 -26 1 -14 -6 -23 -6 -20
-1 3 5 -2 15 -11 22 -14 12 -16 12 -8 0 6 -11 5 -12 -6 -5 -8 5 -27 9 -44 9
-18 0 -29 5 -27 13 1 6 -2 12 -8 12 -5 0 -10 -8 -10 -17 -1 -16 -2 -16 -15 1
-11 14 -15 16 -15 5 0 -12 -1 -12 -9 0 -7 10 -27 15 -65 14 -34 0 -56 4 -56
11 0 7 -3 8 -8 1 -8 -12 -73 -15 -66 -3 3 4 1 8 -5 8 -5 0 -12 -6 -14 -12 -4
-10 -6 -10 -6 0 -1 6 -8 12 -17 12 -9 0 -12 5 -8 12 5 7 3 8 -7 2 -8 -5 -26
-9 -41 -10 -15 -1 -35 -7 -45 -15 -17 -13 -17 -13 -3 5 14 18 13 18 -9 11 -15
-4 -21 -4 -17 3 7 11 -12 11 -31 -1 -6 -4 -14 -3 -17 2 -9 14 -34 7 -52 -15
-13 -16 -15 -16 -10 -2 3 10 0 20 -6 24 -7 5 -8 2 -3 -5z m58 -18 c-3 -7 -6
-13 -8 -13 -2 0 -5 6 -8 13 -3 8 1 14 8 14 7 0 11 -6 8 -14z m-1163 -308 c0
-2 -10 -9 -22 -15 -22 -11 -22 -10 -4 4 21 17 26 19 26 11z m1140 -310 c0 7
24 8 65 5 41 -3 65 -2 65 5 0 5 5 3 10 -5 7 -11 10 -11 10 -2 0 7 4 11 10 7 5
-3 25 -6 44 -7 19 -1 33 -4 31 -8 -2 -4 2 -7 10 -7 8 0 12 4 9 8 -2 4 0 10 6
14 5 3 10 -1 10 -9 0 -8 5 -18 12 -22 7 -4 8 -3 4 4 -4 7 -4 12 1 13 4 0 16 2
26 4 10 2 14 -1 10 -8 -4 -7 0 -8 11 -4 9 4 15 3 12 -2 -3 -5 1 -11 9 -15 8
-3 17 0 21 6 5 7 2 8 -6 3 -9 -6 -11 -4 -6 4 6 9 13 8 29 -6 14 -12 18 -13 12
-3 -8 13 -7 13 8 1 12 -9 17 -10 17 -2 0 7 5 9 10 6 6 -4 8 -11 5 -16 -4 -5 4
-5 19 1 14 5 25 6 25 2 -3 -20 2 -33 11 -27 6 4 7 12 4 18 -5 8 -3 8 7 0 7 -7
21 -13 31 -13 10 0 18 -6 19 -12 0 -9 2 -9 6 1 4 9 7 10 12 2 4 -6 25 -14 46
-16 22 -3 43 -12 47 -19 5 -8 19 -13 33 -11 14 1 25 -1 25 -4 0 -11 51 -30 65
-25 7 3 20 -5 29 -18 11 -15 16 -18 17 -8 0 11 2 11 6 3 2 -7 11 -13 19 -13 9
0 12 -5 9 -10 -8 -13 18 -8 27 5 4 6 8 0 8 -12 0 -13 2 -23 4 -23 2 0 13 -3
23 -6 16 -6 16 -5 -2 10 -20 17 -20 17 3 6 13 -6 25 -17 28 -25 3 -7 13 -16
21 -19 14 -6 14 -4 2 11 -11 14 -9 13 13 -2 15 -11 25 -26 23 -34 -4 -11 -2
-11 9 -2 11 9 15 8 19 -4 4 -9 13 -12 24 -8 16 6 16 5 4 -11 -12 -15 -12 -17
0 -14 8 2 17 8 21 13 5 6 8 5 8 -3 0 -8 5 -10 13 -6 7 5 6 0 -3 -11 -14 -17
-13 -18 8 -12 13 3 22 3 19 0 -10 -9 34 -45 49 -39 7 3 13 2 13 -2 -3 -17 2
-33 9 -29 10 5 51 -40 43 -49 -3 -4 -1 -4 6 0 13 7 55 -23 48 -35 -3 -4 2 -10
11 -13 10 -4 13 -2 8 6 -5 7 -3 8 5 4 7 -5 10 -14 7 -22 -3 -9 0 -11 11 -7 11
4 14 2 9 -5 -4 -7 -1 -12 8 -12 10 0 16 -9 16 -22 0 -17 3 -19 9 -9 6 10 12 5
22 -17 7 -17 17 -28 21 -26 4 3 8 0 8 -6 0 -6 5 -8 10 -5 9 6 14 -7 8 -21 -2
-3 5 -10 15 -15 9 -6 15 -14 12 -20 -4 -5 2 -6 11 -2 12 4 15 3 10 -5 -4 -7
-2 -12 4 -12 6 0 8 -4 5 -10 -3 -5 -1 -10 5 -10 6 0 8 -4 5 -10 -3 -5 2 -10
11 -10 10 0 15 -2 12 -5 -3 -3 8 -20 23 -36 16 -17 29 -40 29 -52 0 -11 3 -18
6 -14 3 3 12 0 19 -6 10 -9 10 -15 1 -26 -6 -8 -6 -12 -1 -9 9 5 36 -15 35
-27 -1 -21 1 -25 10 -20 6 3 10 -3 10 -14 0 -12 6 -21 13 -22 10 0 10 -2 0 -6
-18 -7 -16 -20 3 -27 8 -3 12 -2 9 4 -3 6 -4 10 -1 10 3 0 10 -10 17 -21 8
-17 8 -20 -1 -14 -8 5 -11 3 -8 -6 3 -8 10 -13 16 -12 7 2 9 -4 5 -14 -4 -10
-2 -14 4 -10 6 4 9 -3 8 -17 -2 -14 5 -33 14 -43 10 -10 17 -26 15 -35 -1 -12
3 -15 14 -10 15 5 15 4 3 -11 -10 -13 -10 -17 -1 -17 7 0 10 -7 6 -16 -3 -8
-2 -13 3 -10 5 3 12 -1 15 -10 3 -8 2 -13 -2 -10 -5 3 -9 -2 -9 -10 0 -8 6
-13 13 -10 8 3 16 0 20 -6 4 -7 3 -8 -4 -4 -7 4 -12 1 -12 -8 0 -9 4 -16 9
-16 5 0 8 -8 6 -17 -1 -10 4 -29 12 -42 8 -13 11 -21 5 -17 -6 4 -8 -2 -5 -14
3 -11 9 -17 14 -14 5 3 6 -2 3 -11 -4 -8 -1 -22 6 -30 10 -12 10 -15 -1 -15
-8 0 -5 -6 7 -15 19 -15 19 -15 -1 -8 -16 5 -18 4 -9 -8 20 -26 34 -79 21 -79
-8 0 -8 -3 -2 -8 6 -4 11 -16 13 -27 2 -11 6 -27 9 -35 3 -8 7 -26 9 -39 3
-22 2 -22 -11 -5 -13 18 -14 18 -8 -3 3 -13 8 -23 12 -23 3 0 7 -18 7 -40 1
-33 -2 -40 -15 -35 -13 4 -12 2 2 -9 14 -11 16 -19 7 -40 -7 -20 -7 -25 2 -20
8 5 9 2 5 -9 -3 -9 -2 -19 3 -22 13 -8 0 -36 -14 -28 -6 3 -6 1 2 -8 14 -15
16 -33 3 -25 -5 4 -8 -2 -6 -11 2 -10 4 -18 5 -18 7 0 6 -36 -1 -41 -6 -4 -6
-11 1 -19 14 -17 5 -35 -18 -35 -14 0 -15 -2 -2 -9 8 -6 19 -7 25 -4 5 4 1 -3
-9 -15 -11 -12 -16 -22 -11 -22 4 0 2 -6 -4 -14 -8 -10 -9 -16 -1 -21 6 -3 8
-11 4 -16 -3 -5 -10 -6 -16 -3 -7 5 -8 2 -2 -7 12 -19 13 -69 0 -62 -5 4 -7
-1 -2 -12 6 -16 4 -16 -10 -4 -16 13 -16 12 -6 -8 15 -28 15 -36 0 -27 -9 5
-9 2 1 -9 12 -15 11 -17 -2 -17 -12 0 -14 -6 -7 -29 7 -25 6 -29 -8 -24 -10 4
-13 2 -8 -6 4 -6 2 -19 -6 -28 -9 -12 -9 -15 -1 -9 9 5 11 2 7 -8 -3 -9 -11
-13 -18 -9 -6 4 -6 0 2 -9 10 -13 10 -18 1 -24 -8 -5 -9 -3 -4 6 5 8 4 11 -3
6 -6 -3 -9 -15 -7 -26 2 -11 -1 -20 -7 -20 -7 0 -6 -5 2 -15 10 -12 8 -14 -8
-10 -15 3 -18 -1 -14 -21 3 -17 -2 -30 -14 -40 -11 -9 -14 -13 -7 -10 7 4 10
-1 9 -11 -2 -9 -8 -19 -14 -21 -7 -2 -12 -13 -12 -23 0 -11 -4 -17 -10 -14 -5
3 -10 -1 -10 -10 0 -9 5 -13 10 -10 6 3 10 4 10 0 0 -3 -15 -15 -32 -26 -27
-17 -28 -19 -8 -13 22 6 21 4 -10 -26 -20 -18 -27 -30 -17 -26 11 3 16 2 12
-4 -3 -6 -13 -10 -22 -10 -13 0 -14 -2 -2 -17 10 -11 10 -14 2 -9 -8 4 -13 2
-13 -4 0 -6 -4 -9 -8 -6 -4 2 -14 -5 -22 -17 -12 -20 -12 -21 3 -9 13 11 15
10 10 -7 -3 -11 -10 -18 -17 -15 -7 3 -12 -5 -13 -18 -1 -13 -11 -30 -22 -39
-11 -9 -17 -20 -13 -25 4 -5 0 -3 -9 4 -14 10 -16 9 -14 -13 2 -14 -2 -28 -7
-32 -7 -3 -8 -1 -4 5 4 7 5 12 1 12 -3 0 -10 -12 -15 -26 -6 -14 -14 -23 -19
-19 -9 5 -27 -32 -23 -48 1 -5 -2 -6 -8 -2 -5 3 -10 1 -10 -5 0 -6 -5 -8 -12
-4 -8 5 -9 2 -5 -10 6 -14 3 -17 -9 -12 -13 5 -15 2 -11 -13 4 -15 0 -19 -14
-16 -10 2 -18 -1 -16 -8 1 -7 -4 -11 -12 -9 -12 3 -12 1 0 -14 8 -10 9 -15 2
-11 -7 5 -16 -1 -23 -13 -6 -11 -18 -20 -26 -20 -8 0 -12 -5 -9 -10 3 -6 -1
-10 -9 -10 -9 0 -16 -5 -16 -11 0 -5 -5 -7 -12 -3 -8 5 -9 2 -5 -10 5 -14 3
-17 -8 -12 -10 3 -15 0 -15 -11 0 -9 -3 -13 -7 -10 -3 4 -17 -8 -31 -26 -22
-29 -23 -30 -17 -7 6 25 6 25 -12 -3 -11 -15 -23 -24 -26 -20 -4 3 -7 -2 -7
-12 0 -10 -3 -16 -6 -12 -4 3 -15 -4 -26 -16 -11 -12 -17 -16 -13 -9 3 6 1 12
-4 12 -6 0 -11 -7 -11 -15 0 -8 -5 -15 -11 -15 -5 0 -7 -5 -3 -11 4 -7 -2 -7
-17 1 -13 7 -21 9 -17 6 11 -12 -24 -45 -40 -38 -10 3 -13 1 -8 -6 3 -6 2 -13
-4 -17 -5 -3 -10 0 -10 7 0 8 -5 6 -11 -5 -9 -15 -13 -16 -27 -5 -13 10 -14
10 -8 0 12 -19 -11 -40 -40 -36 -19 2 -23 -1 -14 -10 8 -10 4 -13 -17 -12 -19
0 -27 -4 -25 -14 3 -11 0 -11 -12 0 -13 10 -16 10 -16 -3 0 -10 -7 -15 -20
-12 -11 2 -23 -1 -26 -7 -5 -7 -2 -8 7 -4 8 4 5 0 -5 -8 -14 -11 -23 -13 -32
-5 -8 7 -14 6 -20 -2 -5 -8 -3 -9 6 -4 9 5 11 4 6 -4 -4 -6 -13 -8 -19 -4 -18
11 -38 12 -31 2 3 -5 10 -6 16 -3 7 4 8 2 4 -4 -4 -7 -20 -12 -37 -12 -16 0
-29 -4 -29 -10 0 -5 -5 -10 -11 -10 -5 0 -7 5 -3 11 3 6 -5 3 -20 -6 -14 -10
-26 -13 -26 -9 0 5 -5 1 -11 -9 -8 -14 -14 -16 -25 -6 -10 8 -14 8 -14 0 0 -6
-5 -11 -11 -11 -5 0 -7 5 -4 10 3 6 1 10 -4 10 -10 0 -15 -13 -12 -32 1 -8
-20 -5 -36 5 -7 5 -13 4 -13 -2 0 -6 -7 -8 -15 -5 -8 4 -23 0 -32 -7 -14 -12
-16 -12 -8 1 6 12 5 13 -6 2 -16 -15 -33 -16 -23 0 4 7 3 8 -4 4 -7 -4 -12
-14 -12 -22 0 -8 -5 -12 -10 -9 -6 4 -8 11 -5 16 4 5 1 9 -4 9 -6 0 -11 -4
-11 -9 0 -5 -11 -8 -25 -6 -14 1 -25 -2 -25 -8 0 -5 -8 -3 -17 4 -10 8 -14 9
-10 2 5 -8 -2 -11 -22 -11 -19 1 -28 5 -24 12 4 6 -4 2 -17 -9 -13 -11 -20
-14 -16 -7 9 15 1 15 -24 2 -16 -9 -19 -8 -14 7 4 13 3 15 -4 5 -6 -9 -21 -12
-41 -9 -17 3 -31 1 -31 -4 0 -6 -5 -7 -10 -4 -6 4 -7 11 -4 17 4 7 2 8 -5 4
-6 -4 -9 -11 -6 -16 3 -5 1 -12 -5 -15 -6 -4 -10 -3 -9 2 4 21 -2 25 -14 8
-11 -14 -16 -15 -22 -5 -5 9 -4 11 3 6 8 -5 10 -1 5 9 -5 13 -7 14 -14 3 -5
-7 -9 -9 -9 -4 0 5 -6 3 -14 -3 -11 -9 -16 -9 -22 0 -5 8 -3 9 6 4 9 -5 11 -4
6 4 -4 6 -13 8 -19 4 -22 -14 -91 -10 -103 5 -9 12 -13 13 -19 2 -6 -9 -4 -11
5 -5 9 5 11 4 6 -4 -5 -8 -15 -6 -35 8 -26 19 -29 19 -45 3 -16 -16 -17 -16
-10 1 7 20 -6 23 -24 5 -8 -8 -12 -8 -12 -1 0 6 -13 10 -29 9 -17 -1 -27 2
-24 8 4 5 -1 7 -10 3 -10 -3 -17 -2 -17 2 0 14 -55 30 -70 21 -16 -10 -51 10
-42 25 3 5 -1 4 -10 -3 -12 -9 -18 -10 -23 -2 -4 6 -12 9 -18 7 -16 -6 -49 12
-42 23 3 5 -6 7 -21 4 -19 -3 -24 -1 -18 8 5 8 1 7 -11 -2 -11 -9 -16 -10 -11
-2 4 7 2 12 -6 12 -10 0 -9 3 2 11 16 12 17 12 -35 -6 -16 -6 -17 -5 -5 4 13
9 12 11 -3 11 -10 0 -16 4 -13 8 2 4 -7 9 -22 10 -15 1 -28 7 -30 12 -2 6 -10
10 -18 10 -8 0 -14 5 -14 11 0 5 -4 8 -9 5 -14 -9 -41 4 -41 19 0 7 -7 16 -16
19 -12 5 -14 3 -8 -7 5 -7 2 -5 -7 5 -9 9 -19 14 -23 11 -3 -4 -6 -1 -6 5 0 6
-10 12 -22 14 -13 2 -22 9 -20 16 1 8 -5 12 -15 10 -10 -2 -17 2 -16 9 2 7 -3
10 -11 7 -8 -3 -17 0 -22 7 -5 8 -3 10 7 4 12 -8 12 -6 0 8 -9 12 -17 14 -26
7 -15 -13 -25 -3 -18 18 4 10 2 13 -5 8 -7 -4 -12 -2 -12 4 0 7 -7 9 -17 6
-10 -4 -15 -4 -11 -1 3 3 -9 21 -26 39 -20 21 -34 29 -39 22 -5 -7 -7 -2 -4
10 4 17 0 20 -20 18 -20 -2 -22 0 -12 12 7 8 8 14 3 13 -5 -1 -16 -1 -24 0
-13 1 -13 2 0 11 12 8 10 10 -8 10 -13 0 -20 4 -17 10 3 6 1 10 -5 10 -15 0
-40 25 -40 40 0 6 -5 8 -12 4 -8 -5 -9 -2 -5 9 3 9 1 19 -5 23 -7 5 -8 2 -3
-6 6 -9 4 -11 -4 -6 -7 5 -10 15 -6 23 4 13 3 14 -10 3 -15 -12 -20 -4 -16 23
0 4 -9 7 -21 7 -19 0 -20 2 -8 10 13 9 7 14 -12 11 -4 0 -4 7 -1 16 4 10 2 14
-4 10 -7 -4 -17 6 -24 22 -7 16 -18 27 -23 24 -5 -4 -7 1 -2 12 6 16 4 16 -10
4 -16 -13 -16 -12 -4 10 11 21 10 23 -4 18 -11 -4 -18 1 -22 18 -3 14 -10 25
-16 25 -5 0 -6 5 -2 12 5 8 2 9 -11 4 -15 -5 -16 -4 -5 9 8 10 9 15 1 15 -6 0
-11 7 -11 16 0 8 -4 13 -9 10 -5 -3 -12 1 -15 10 -4 10 -2 13 7 8 6 -4 -5 10
-25 31 -28 29 -35 42 -26 52 8 9 7 13 -2 13 -7 0 -10 6 -7 14 3 8 -2 20 -11
28 -16 12 -16 11 -2 -7 14 -18 14 -19 -2 -7 -9 7 -15 24 -13 37 1 14 -2 22 -6
19 -5 -3 -9 4 -9 15 0 10 -6 22 -12 24 -10 4 -9 8 2 16 13 10 13 11 0 12 -8 1
-17 1 -20 1 -3 0 -6 7 -7 16 -3 39 -9 57 -18 64 -6 5 -4 8 5 8 11 0 10 3 -4
11 -15 9 -16 13 -5 20 11 7 11 9 -2 9 -11 0 -15 9 -13 30 1 17 -2 33 -7 36 -5
3 -7 10 -4 15 3 5 0 6 -8 3 -11 -4 -13 1 -10 20 3 15 -1 34 -8 43 -10 12 -10
14 -1 9 6 -4 12 -2 12 3 0 6 -5 11 -11 11 -6 0 -8 7 -5 16 5 12 2 15 -10 10
-14 -6 -15 -4 -4 10 11 13 11 19 1 36 -10 15 -10 18 0 13 8 -6 10 -4 3 6 -13
21 -14 39 -1 39 8 0 7 3 -2 9 -11 7 -11 13 0 32 11 21 11 23 -3 11 -13 -10
-18 -10 -24 -1 -5 8 -3 9 5 4 17 -10 11 36 -6 50 -9 7 -10 14 -2 25 9 13 10
12 5 -2 -3 -10 -1 -18 4 -18 6 0 10 9 10 20 0 11 -5 20 -12 20 -9 0 -9 3 -1
11 9 9 9 16 0 30 -9 15 -9 24 1 39 7 11 9 20 5 19 -22 -4 -25 3 -7 16 12 9 14
14 6 15 -15 0 -13 41 3 52 6 5 5 8 -2 8 -7 0 -13 7 -13 16 0 8 4 12 10 9 5 -3
10 -2 10 4 0 5 -6 11 -12 14 -10 3 -8 10 5 25 18 20 18 21 0 31 -17 10 -17 10
2 11 17 0 17 2 5 10 -11 7 -11 10 -2 10 9 0 10 5 3 18 -7 13 -6 23 1 30 7 7 8
12 2 12 -5 0 -2 5 6 10 12 8 12 10 1 10 -11 0 -11 3 -1 15 7 8 9 15 5 15 -4 0
-3 6 2 13 6 6 13 21 17 31 6 17 5 17 -11 5 -17 -13 -17 -13 0 13 20 32 22 41
5 33 -7 -4 -4 1 6 9 15 12 16 16 5 17 -10 0 -11 2 -1 6 10 4 10 8 1 19 -9 11
-8 15 5 20 9 3 13 10 10 15 -3 5 -1 9 4 9 6 0 13 7 16 16 5 14 4 15 -9 4 -13
-11 -14 -10 -8 6 4 10 15 28 25 38 10 11 15 22 12 25 -4 3 -9 0 -11 -6 -3 -7
-9 -13 -14 -13 -6 0 -2 11 8 24 10 13 22 21 27 18 5 -3 6 0 2 7 -4 6 -2 19 6
28 9 12 9 15 0 9 -6 -4 -12 -2 -12 3 0 6 6 11 14 11 9 0 12 7 9 20 -3 11 0 20
6 20 6 0 11 7 11 15 0 8 6 15 13 15 9 0 9 2 -1 9 -11 7 -11 9 2 14 9 4 16 12
16 19 0 9 -3 8 -10 -2 -5 -8 -10 -10 -10 -5 0 6 9 18 20 28 12 10 17 23 13 33
-5 13 -3 15 7 9 10 -6 12 -4 7 9 -4 10 -3 15 3 11 6 -3 11 0 12 7 0 7 2 18 2
23 2 19 43 65 51 57 5 -4 6 0 2 9 -3 10 3 26 13 37 10 11 16 23 12 28 -4 4 0
5 9 1 11 -3 16 0 15 11 0 10 4 18 9 20 16 5 27 31 19 45 -4 6 -4 9 0 6 4 -4
18 3 31 15 14 13 19 23 13 27 -6 4 -2 10 11 14 11 3 21 12 21 19 0 8 8 20 18
27 16 13 16 13 2 -6 -14 -19 -14 -19 3 -6 10 8 16 20 13 28 -3 8 -1 11 4 8 5
-3 15 5 21 19 7 14 16 23 20 20 5 -3 9 0 9 6 0 6 4 8 10 5 5 -3 7 0 4 8 -3 8
3 20 13 28 17 13 17 13 3 -6 -14 -19 -14 -19 2 -6 10 7 18 20 18 28 0 8 5 11
10 8 6 -3 10 -1 10 5 0 6 5 8 13 4 7 -5 6 0 -3 11 -9 11 -10 16 -2 11 14 -9
44 18 34 30 -4 5 2 2 12 -6 18 -14 19 -14 7 8 -12 22 -11 23 8 12 12 -6 22 -8
22 -5 1 3 2 11 3 18 1 6 7 11 14 10 7 -2 12 4 12 13 0 10 5 14 16 10 8 -3 13
-2 10 3 -3 5 1 14 9 21 13 11 14 10 9 -6 -6 -18 -6 -18 9 1 8 11 13 23 11 27
-3 4 2 5 10 2 9 -4 18 1 22 10 3 9 10 13 15 10 5 -3 9 0 9 5 0 6 6 11 13 11 7
0 18 9 25 20 7 12 17 18 22 15 6 -3 10 -1 10 4 0 6 5 11 11 11 5 0 7 -6 3 -12
-5 -9 -3 -9 9 1 9 7 15 17 12 21 -3 4 2 11 11 14 8 3 12 2 9 -4 -3 -6 -2 -10
4 -10 5 0 13 10 16 21 6 17 9 18 16 8 6 -11 9 -10 15 4 5 14 9 15 20 6 12 -10
13 -8 7 7 -6 17 -5 17 10 5 15 -12 17 -12 10 4 -5 14 -3 17 10 12 10 -4 17 -2
17 5 0 7 5 6 15 -2 13 -11 14 -10 10 3 -4 8 -1 18 6 23 8 5 10 3 4 -7 -8 -12
-6 -12 8 -1 9 8 22 10 28 6 8 -5 10 -2 7 8 -4 8 0 15 8 15 7 0 11 -5 8 -11 -3
-6 1 -3 9 7 15 18 32 24 22 7 -4 -6 5 -5 19 2 14 6 26 15 26 20 0 5 5 6 10 3
6 -4 17 -1 25 5 8 6 19 9 25 5 5 -3 10 -1 10 4 0 6 5 11 11 11 5 0 7 -5 3 -12
-5 -7 -3 -8 5 -4 7 5 10 13 8 20 -3 7 8 11 32 10 20 -1 39 4 43 10 5 8 8 7 8
-2 0 -7 5 -10 10 -7 6 4 7 11 4 17 -5 7 -1 7 12 0 15 -8 24 -7 38 6 15 13 17
13 11 2 -8 -13 -7 -13 8 -1 14 11 17 11 17 0 0 -12 2 -12 9 0 10 16 57 21 83
9 13 -6 16 -5 12 6 -4 11 0 14 15 11 12 -2 25 -6 30 -10 5 -3 13 -1 16 5 4 6
22 9 40 8 19 -1 38 1 41 5 4 4 11 2 16 -5 4 -7 8 -8 8 -3z m-1650 -69 c0 -2
-8 -10 -17 -17 -16 -13 -17 -12 -4 4 13 16 21 21 21 13z m-703 -1321 c0 -8 -4
-12 -9 -9 -5 3 -6 10 -3 15 9 13 12 11 12 -6z m623 -971 c0 -8 -19 -13 -24 -6
-3 5 1 9 9 9 8 0 15 -2 15 -3z m3810 -928 c0 -2 -8 -10 -17 -17 -16 -13 -17
-12 -4 4 13 16 21 21 21 13z m-2490 -376 c0 -5 -2 -10 -4 -10 -3 0 -8 5 -11
10 -3 6 -1 10 4 10 6 0 11 -4 11 -10z m175 -29 c3 -5 2 -12 -3 -15 -5 -3 -9 1
-9 9 0 17 3 19 12 6z"/>
<path d="M1576 4152 c-3 -5 1 -9 9 -9 8 0 12 4 9 9 -3 4 -7 8 -9 8 -2 0 -6 -4
-9 -8z"/>
<path d="M1884 3803 c5 -9 -1 -12 -23 -9 -27 3 -29 1 -20 -15 8 -17 7 -18 -14
-10 -20 8 -24 6 -23 -7 0 -9 -5 -17 -11 -18 -7 -1 -18 -2 -24 -3 -5 0 -8 -4
-6 -8 2 -5 -4 -16 -15 -25 -10 -10 -18 -15 -18 -10 -1 4 -8 -6 -16 -23 -8 -16
-12 -22 -9 -12 3 10 1 15 -5 12 -6 -3 -10 -13 -10 -21 0 -8 -6 -14 -14 -14 -8
0 -18 -9 -21 -20 -4 -11 -11 -18 -16 -15 -5 4 -9 -1 -9 -9 0 -8 -9 -20 -20
-26 -11 -6 -17 -16 -14 -22 4 -7 3 -8 -4 -4 -7 4 -12 3 -12 -3 0 -6 -7 -8 -15
-5 -11 5 -13 2 -9 -10 3 -9 1 -16 -6 -16 -6 0 -8 -5 -4 -12 5 -9 2 -8 -9 1
-15 12 -17 12 -11 -3 4 -11 1 -16 -11 -16 -9 0 -13 -4 -10 -10 3 -5 2 -10 -4
-10 -6 0 -9 -6 -7 -12 1 -7 1 -10 -1 -5 -9 14 -25 7 -19 -9 3 -8 2 -12 -4 -9
-6 3 -10 1 -10 -5 0 -6 -4 -8 -10 -5 -5 3 -10 -1 -10 -9 0 -9 -5 -16 -11 -16
-5 0 -7 -6 -3 -12 5 -9 2 -8 -9 1 -15 12 -17 12 -12 -2 4 -8 1 -18 -4 -22 -6
-3 -8 -11 -5 -17 4 -7 2 -8 -4 -4 -6 4 -8 14 -5 24 8 21 2 15 -22 -23 -13 -21
-14 -27 -4 -20 8 6 7 3 -2 -6 -13 -12 -14 -20 -6 -35 9 -16 8 -17 -4 -7 -12
10 -15 7 -17 -18 -1 -16 3 -40 9 -52 11 -20 11 -21 -5 -8 -14 12 -16 12 -10
-3 3 -9 10 -16 15 -16 5 0 9 -9 9 -20 0 -11 4 -20 10 -20 5 0 9 -6 7 -12 -1
-7 3 -12 9 -11 7 1 10 -6 7 -20 -4 -18 -3 -19 6 -7 9 13 11 13 11 -1 0 -8 14
-28 30 -44 26 -25 32 -27 40 -15 5 8 10 10 10 5 0 -6 -6 -17 -12 -24 -7 -7 -8
-12 -3 -11 24 5 37 -1 32 -14 -3 -8 1 -17 9 -20 10 -4 12 -2 8 6 -4 7 -3 8 4
4 7 -4 12 -12 12 -17 0 -14 26 -39 40 -39 6 0 8 -4 5 -10 -3 -5 1 -10 10 -10
9 0 13 -4 10 -10 -6 -9 8 -15 29 -11 5 1 3 -5 -4 -14 -11 -13 -10 -14 5 -8 15
5 17 3 12 -11 -4 -9 -3 -15 1 -12 5 3 14 -4 22 -14 8 -10 17 -17 22 -14 4 3 8
0 8 -6 0 -14 46 -60 60 -60 6 0 8 -4 5 -10 -3 -5 1 -10 10 -10 12 0 15 -6 10
-22 -4 -15 -3 -18 3 -10 6 9 15 6 38 -14 16 -14 22 -23 14 -19 -8 5 -5 -2 7
-14 12 -11 27 -21 33 -21 6 0 13 -7 16 -15 4 -8 11 -12 17 -8 6 4 7 1 1 -8 -5
-8 -7 -23 -6 -34 2 -12 0 -16 -5 -9 -5 8 -16 -1 -32 -27 -13 -21 -27 -38 -30
-37 -20 2 -31 -3 -26 -12 3 -5 -1 -10 -10 -10 -9 0 -14 -4 -10 -9 3 -5 -4 -12
-15 -16 -11 -4 -17 -11 -14 -17 5 -8 1 -9 -11 -4 -15 5 -16 4 -5 -9 11 -13 10
-14 -5 -9 -13 5 -16 4 -11 -4 4 -7 1 -12 -9 -12 -9 0 -14 -4 -11 -8 3 -5 -6
-15 -19 -22 -13 -7 -22 -17 -20 -21 3 -4 -4 -10 -15 -14 -11 -4 -18 -11 -15
-16 6 -8 -9 -13 -29 -10 -5 1 -3 -6 5 -15 9 -12 9 -15 2 -10 -8 4 -13 2 -13
-4 0 -6 -5 -8 -12 -4 -7 5 -9 2 -5 -9 4 -12 2 -14 -10 -10 -11 4 -14 2 -9 -5
4 -7 1 -12 -9 -12 -9 0 -14 -4 -11 -8 3 -5 -6 -15 -19 -22 -13 -7 -22 -17 -19
-22 3 -4 -2 -8 -10 -8 -9 0 -15 -6 -14 -12 2 -7 -5 -12 -14 -10 -13 2 -16 -2
-12 -13 5 -11 0 -18 -15 -22 -11 -3 -18 -9 -15 -14 3 -5 -2 -9 -10 -9 -9 0
-15 -6 -14 -12 2 -7 -4 -12 -14 -10 -12 2 -16 -4 -14 -22 2 -18 -1 -23 -14
-21 -13 3 -16 -2 -12 -22 4 -20 2 -24 -8 -18 -9 6 -11 4 -5 -5 12 -20 14 -70
2 -77 -5 -3 -7 -2 -4 4 3 5 -1 10 -10 10 -13 0 -12 -4 5 -17 16 -14 18 -20 9
-30 -9 -10 -9 -11 2 -5 11 6 13 3 9 -13 -4 -15 -2 -19 8 -15 8 3 14 0 14 -7 0
-16 26 -41 34 -32 4 3 4 -2 0 -12 -5 -14 -4 -17 4 -12 7 4 12 2 12 -4 0 -6 4
-9 9 -6 5 3 15 -2 22 -12 13 -15 12 -16 -3 -3 -11 8 -18 9 -18 3 0 -6 9 -14
20 -17 11 -3 20 -11 20 -16 0 -6 6 -7 13 -3 7 5 6 0 -3 -11 -14 -17 -13 -18 8
-13 19 5 21 4 11 -8 -10 -12 -9 -13 4 -8 16 6 42 -28 29 -40 -3 -4 1 -4 11 0
11 4 19 0 23 -10 3 -9 10 -13 15 -10 5 3 9 2 8 -3 -3 -20 2 -34 11 -28 6 3 10
2 10 -4 0 -5 9 -12 19 -16 11 -3 18 -11 15 -18 -2 -7 10 -18 26 -26 21 -9 33
-22 37 -41 4 -21 10 -27 24 -25 10 2 18 1 18 -3 -3 -20 3 -31 21 -37 11 -4 17
-11 14 -17 -5 -7 -1 -9 9 -5 9 3 18 0 21 -9 3 -8 17 -14 31 -14 14 0 25 -5 25
-11 0 -8 5 -7 15 1 13 10 18 11 28 1 9 -10 9 -11 -3 -8 -8 2 -12 2 -7 0 4 -3
4 -10 0 -16 -5 -8 -2 -8 9 0 8 7 19 9 23 5 5 -4 5 -1 1 6 -4 6 -2 12 4 12 6 0
8 4 5 10 -4 6 2 7 17 1 16 -6 27 -3 38 8 8 10 11 11 6 4 -5 -7 -6 -13 -2 -13
3 0 20 19 37 42 18 24 29 35 26 26 -4 -12 -2 -15 8 -12 8 3 11 12 9 19 -3 7 4
19 15 27 12 8 18 18 13 23 -4 5 -1 5 6 1 9 -5 15 -1 19 14 4 16 8 18 14 8 7
-10 9 -8 9 6 0 11 5 16 14 13 9 -4 13 2 12 15 -1 14 10 27 33 39 19 10 38 23
43 29 5 7 4 7 -4 0 -7 -5 -17 -10 -23 -10 -5 0 2 8 18 18 15 10 24 21 21 25
-4 3 3 5 14 2 16 -3 20 1 17 16 -2 11 0 17 6 14 5 -4 9 -1 9 5 0 6 5 8 12 4 8
-5 9 -2 4 12 -4 10 -4 16 -1 12 3 -3 18 5 33 19 15 13 35 32 44 40 10 9 16 18
13 21 -9 9 45 43 57 36 10 -6 10 -5 0 8 -10 13 -8 17 18 28 16 7 30 19 30 26
0 8 7 14 16 14 9 0 12 5 8 11 -4 7 -1 10 7 7 8 -3 13 -10 12 -16 -2 -6 7 -9
18 -7 17 3 19 2 9 -10 -10 -12 -8 -13 9 -10 13 2 19 0 15 -6 -7 -12 29 -49 47
-49 6 0 8 -7 5 -17 -4 -10 -4 -14 0 -10 4 3 19 -8 34 -25 19 -21 32 -28 41
-23 11 7 10 4 -1 -10 -8 -10 -10 -16 -4 -12 6 3 21 -4 33 -17 22 -23 22 -25 4
-35 -10 -6 -12 -11 -5 -11 6 0 11 -3 11 -7 -1 -5 0 -10 1 -13 1 -3 3 -15 4
-27 2 -15 -2 -19 -13 -15 -13 5 -13 1 3 -22 10 -16 13 -26 8 -22 -6 3 -13 2
-17 -4 -3 -5 -2 -10 3 -10 15 0 23 -28 10 -36 -6 -4 -8 -3 -4 4 3 6 2 13 -3
16 -5 4 -8 -2 -6 -11 2 -10 4 -22 4 -26 1 -5 7 -5 14 -2 6 4 3 -1 -7 -9 -11
-9 -14 -16 -8 -16 13 0 12 -43 -1 -56 -4 -4 -7 -12 -7 -18 0 -6 5 -4 11 4 9
12 10 11 6 -7 -3 -13 -1 -26 4 -29 6 -4 6 -10 0 -17 -12 -15 -12 -19 -1 -57 6
-19 5 -32 -2 -36 -7 -4 -8 -2 -4 4 4 7 2 12 -3 12 -14 0 -14 -17 -1 -25 12 -7
10 -64 -2 -71 -4 -3 -8 -11 -8 -17 0 -8 3 -8 9 1 6 10 10 7 13 -12 3 -15 1
-29 -5 -33 -5 -3 -7 -1 -3 5 3 6 2 13 -3 16 -5 4 -8 -2 -6 -11 2 -10 4 -21 4
-25 1 -4 9 -5 19 -2 15 5 15 5 0 -5 -10 -7 -14 -19 -10 -33 3 -14 1 -19 -6
-14 -6 4 -4 -7 6 -23 13 -24 19 -27 25 -15 5 8 13 11 19 8 7 -5 9 -2 5 9 -3 9
-1 17 5 19 7 3 8 9 3 19 -13 20 -15 40 -4 33 5 -3 9 2 9 10 0 9 -6 16 -12 16
-8 0 -9 3 -3 8 12 9 18 65 5 57 -10 -6 -8 15 4 34 6 9 5 12 -2 7 -11 -7 -11
19 1 30 4 4 -1 13 -11 21 -16 12 -16 13 1 7 17 -6 23 6 10 20 -11 10 -12 37
-2 30 5 -3 9 2 9 10 0 9 -6 16 -12 16 -8 0 -9 3 -3 8 15 11 17 32 3 32 -9 0
-8 4 2 11 11 8 12 12 3 16 -7 2 -13 9 -13 14 0 6 6 7 13 3 7 -5 6 0 -3 11 -9
11 -10 16 -2 11 6 -4 12 -2 12 3 0 6 -6 11 -12 11 -9 0 -8 3 2 10 13 8 12 11
-5 25 -16 12 -17 14 -2 9 9 -3 17 -1 17 5 0 6 -6 11 -12 11 -9 0 -8 4 2 10 13
9 13 11 0 20 -13 9 -13 11 0 20 13 9 13 11 0 20 -9 6 -10 10 -3 10 6 0 19 3
28 7 14 5 16 2 10 -18 -7 -22 -7 -23 10 -9 11 9 16 10 11 3 -4 -8 -2 -13 6
-13 9 0 9 -3 -2 -10 -12 -8 -12 -10 -1 -10 11 0 11 -3 0 -16 -10 -13 -10 -17
2 -26 11 -7 11 -11 1 -15 -10 -4 -10 -8 0 -21 10 -12 10 -14 1 -8 -7 4 -13 2
-13 -3 0 -6 6 -11 13 -11 8 0 7 -4 -3 -10 -12 -8 -12 -10 -1 -10 11 0 11 -3 0
-17 -11 -13 -11 -17 -1 -20 6 -3 12 -13 12 -23 0 -9 6 -23 14 -29 19 -16 46
-4 38 17 -5 15 -4 16 13 2 17 -14 18 -13 13 13 -3 15 -1 27 4 27 5 0 6 5 3 10
-4 6 -12 8 -18 4 -7 -3 -5 1 5 8 10 9 13 19 8 29 -6 11 -3 15 12 16 12 1 22
-6 25 -18 3 -10 12 -19 20 -19 10 0 13 -6 9 -16 -3 -8 -2 -12 4 -9 6 3 10 1
10 -5 0 -6 5 -8 10 -5 6 3 10 -1 10 -9 0 -9 7 -13 19 -11 14 3 18 -1 14 -11
-4 -10 2 -14 22 -14 18 0 24 -4 19 -12 -6 -10 -4 -10 8 0 13 10 18 10 24 1 5
-8 3 -9 -6 -4 -9 5 -11 4 -6 -3 4 -8 14 -9 24 -4 9 5 27 7 39 7 12 -1 20 2 17
6 -3 5 4 9 15 9 12 0 21 6 21 13 0 8 4 7 10 -3 9 -14 15 -7 11 14 -1 5 6 5 16
2 9 -4 14 -4 10 0 -3 4 3 15 14 25 12 10 18 22 15 28 -4 5 -1 13 5 17 7 4 9 3
5 -4 -3 -6 -2 -13 4 -17 9 -5 14 7 11 27 0 4 7 4 17 1 9 -3 14 -3 10 1 -4 5
11 26 33 47 25 24 37 44 33 52 -5 7 -1 7 10 -2 15 -12 17 -12 14 0 -2 8 4 13
13 13 11 -1 15 5 12 17 -3 11 0 19 6 19 7 0 9 -5 5 -12 -4 -7 -3 -8 4 -4 6 4
9 13 5 21 -4 11 0 14 13 9 11 -4 16 -4 12 0 -4 5 8 22 25 39 18 17 31 35 29
39 -1 4 2 7 6 6 10 -4 78 64 74 75 -1 4 3 6 9 5 6 -2 14 3 17 11 3 9 0 11 -8
6 -8 -5 -11 -4 -6 3 3 6 15 9 25 7 10 -2 18 3 18 10 0 8 -5 11 -11 8 -6 -4 -5
0 1 9 7 8 10 18 6 22 -4 4 1 4 12 0 18 -7 18 -6 6 9 -11 14 -11 17 0 17 10 0
10 3 1 12 -9 9 -8 15 3 28 13 15 13 19 -3 36 -9 11 -18 26 -20 34 -2 8 -9 18
-15 22 -8 5 -7 8 3 8 8 1 5 5 -8 11 -14 5 -20 13 -16 21 5 8 2 9 -9 5 -16 -6
-34 25 -28 47 1 5 -5 4 -13 -3 -13 -11 -15 -9 -11 9 4 19 2 20 -12 8 -12 -9
-15 -9 -9 0 4 7 2 12 -4 12 -6 0 -8 5 -5 10 3 6 -1 10 -10 10 -11 0 -15 5 -11
16 3 8 2 12 -3 9 -5 -3 -13 0 -16 6 -4 5 -13 8 -20 6 -8 -4 -11 3 -9 19 2 21
0 23 -12 13 -8 -6 -15 -9 -15 -5 -1 3 -2 10 -3 14 0 4 -15 22 -33 39 -17 17
-29 34 -26 37 5 5 -18 10 -38 8 -3 -1 -6 6 -6 13 0 12 3 12 16 2 14 -11 14
-10 2 6 -7 9 -20 17 -27 17 -13 0 -19 13 -15 34 1 5 -6 3 -15 -5 -10 -8 -15
-9 -11 -3 3 6 -3 16 -13 24 -10 8 -17 17 -14 22 3 4 -2 8 -10 8 -15 0 -21 12
-17 34 1 5 -5 4 -13 -4 -15 -11 -20 -7 -17 12 0 4 -8 12 -19 18 -11 6 -20 18
-20 28 0 15 -2 15 -11 2 -9 -12 -10 -11 -6 7 3 15 1 20 -9 16 -20 -7 -17 16 4
41 17 21 17 21 -5 2 -13 -11 -23 -15 -23 -10 0 13 43 39 59 35 12 -2 12 0 3
11 -9 12 -7 17 13 28 13 7 22 17 19 21 -2 4 4 6 15 4 13 -2 18 2 16 13 -2 17
33 49 49 44 5 -2 6 4 3 12 -4 10 0 14 13 11 14 -3 18 1 15 15 -2 12 4 20 17
23 13 4 17 10 12 19 -4 7 -4 10 1 6 4 -4 16 4 27 17 11 14 25 25 33 25 7 0 19
8 26 18 11 14 11 15 -1 5 -8 -7 -19 -13 -24 -13 -6 0 1 8 17 18 15 10 24 22
20 27 -5 4 -2 5 5 1 8 -5 16 2 22 19 5 14 14 24 19 21 5 -3 14 1 21 9 7 8 9
15 4 15 -5 0 3 8 16 17 14 10 29 17 34 15 5 -2 6 4 3 12 -4 10 0 14 13 11 14
-3 17 2 16 20 -2 18 1 22 15 20 10 -2 18 1 16 8 -1 7 4 11 11 9 8 -1 11 2 7 8
-3 5 -1 10 5 10 6 0 9 4 6 9 -3 5 0 11 8 14 9 4 13 19 12 40 -1 20 2 33 6 31
4 -2 5 8 3 23 -2 16 -4 32 -4 36 -1 5 -6 5 -12 1 -8 -4 -8 0 0 15 9 16 9 21 0
21 -6 0 -9 7 -6 14 4 10 1 13 -9 9 -13 -5 -19 8 -15 30 1 5 -3 6 -8 3 -5 -3
-11 1 -15 9 -3 8 -13 15 -23 15 -15 0 -16 2 -3 10 13 8 12 10 -3 10 -11 0 -15
4 -11 12 5 8 2 9 -10 5 -10 -4 -15 -3 -11 3 6 9 -9 15 -29 11 -5 -1 -3 5 4 14
11 13 10 14 -5 9 -13 -5 -16 -4 -11 4 4 7 2 12 -4 12 -6 0 -8 5 -5 10 3 6 -4
10 -16 10 -12 0 -20 3 -16 6 3 3 -8 20 -24 36 -16 17 -29 36 -29 42 0 6 -5 4
-10 -4 -9 -13 -10 -13 -11 0 -1 8 -1 18 0 22 0 4 -10 10 -24 14 -23 6 -30 15
-26 37 0 4 -8 7 -20 7 -11 0 -17 5 -14 10 3 6 1 10 -5 10 -6 0 -8 5 -5 10 6
10 -9 15 -30 10 -5 -1 -7 1 -3 5 8 9 -16 35 -32 35 -6 0 -8 5 -5 10 3 6 -1 10
-10 10 -9 0 -14 4 -11 9 3 5 -1 12 -10 15 -10 4 -13 2 -9 -7 4 -6 0 -4 -8 5
-8 10 -17 15 -20 11 -4 -3 -7 -2 -7 4 0 6 -9 9 -22 5 -16 -4 -19 -2 -13 9 7
11 6 12 -6 4 -8 -6 -31 -10 -51 -10 -20 1 -34 -3 -32 -7 3 -5 9 -6 14 -3 5 3
11 2 14 -3 2 -4 -6 -9 -20 -10 -49 -4 -55 -6 -50 -19 3 -8 -4 -15 -19 -19 -14
-3 -22 -10 -19 -15 3 -5 -2 -9 -10 -9 -9 0 -15 -5 -13 -12 1 -7 -5 -13 -13
-14 -30 -2 -32 -4 -20 -19 10 -12 8 -13 -10 -10 -19 4 -20 2 -8 -12 9 -12 9
-15 1 -9 -8 4 -13 2 -13 -5 0 -7 -3 -10 -6 -6 -8 8 -33 -16 -27 -25 2 -5 -3
-8 -12 -8 -9 0 -14 -4 -10 -9 7 -13 -66 -72 -79 -64 -6 4 -5 -1 2 -10 12 -14
11 -16 -8 -12 -18 4 -20 2 -9 -11 10 -12 9 -13 -6 -8 -13 5 -16 4 -11 -4 4 -7
2 -12 -4 -12 -6 0 -8 -4 -5 -10 4 -6 -1 -7 -12 -3 -10 3 -15 3 -12 -1 9 -10
-52 -76 -70 -76 -8 0 -12 -3 -9 -6 10 -9 -39 -55 -60 -57 -12 0 -18 -5 -16 -9
3 -5 11 -6 17 -2 7 3 3 -1 -7 -10 -10 -8 -24 -12 -30 -9 -6 4 -5 -1 2 -10 12
-14 11 -16 -8 -12 -19 4 -20 2 -8 -12 9 -12 9 -15 1 -9 -7 4 -13 2 -13 -3 0
-6 -8 -11 -17 -11 -16 0 -16 2 -3 11 12 9 11 10 -7 6 -14 -3 -21 0 -20 7 1 6
-4 10 -12 8 -12 -3 -12 -1 0 14 8 10 9 15 2 11 -14 -9 -53 21 -53 40 0 7 -5
13 -11 13 -5 0 -7 -5 -3 -12 4 -7 3 -8 -4 -4 -6 4 -8 14 -5 23 5 12 2 15 -10
10 -19 -7 -52 37 -40 56 4 7 -2 5 -12 -3 -11 -9 -16 -10 -11 -2 4 7 2 12 -4
12 -6 0 -8 5 -4 12 5 8 2 9 -9 5 -11 -4 -20 1 -27 16 -11 21 -11 21 4 3 9 -11
16 -15 16 -9 0 15 -27 36 -38 29 -13 -8 -44 42 -36 57 4 7 4 9 -1 5 -11 -10
-45 10 -45 27 0 8 -5 15 -11 15 -5 0 -7 -5 -3 -12 4 -7 3 -8 -4 -4 -6 4 -8 14
-5 23 5 12 2 15 -10 10 -11 -4 -21 1 -28 15 -6 12 -29 38 -50 59 -21 20 -35
40 -32 43 4 3 -5 6 -18 6 -17 0 -20 3 -10 9 10 6 5 12 -18 22 -17 8 -31 17
-31 21 0 5 -7 8 -16 8 -9 0 -12 5 -8 13 5 8 2 7 -9 -2 -15 -12 -17 -12 -11 4
6 15 4 16 -13 7 -14 -8 -23 -8 -31 0 -7 7 -12 8 -12 4 0 -5 -8 -2 -17 5 -11 9
-14 10 -9 2z m-449 -753 c10 -11 16 -20 13 -20 -3 0 -13 9 -23 20 -10 11 -16
20 -13 20 3 0 13 -9 23 -20z m2356 -1107 c13 -16 12 -17 -3 -4 -10 7 -18 15
-18 17 0 8 8 3 21 -13z m-846 -593 c3 -5 1 -10 -4 -10 -6 0 -11 5 -11 10 0 6
2 10 4 10 3 0 8 -4 11 -10z"/>
<path d="M2176 3622 c-2 -4 -1 -14 4 -22 7 -11 9 -9 7 8 -1 24 -3 26 -11 14z"/>
<path d="M2893 3573 c4 -3 1 -13 -6 -22 -11 -14 -10 -14 5 -2 16 12 16 31 1
31 -4 0 -3 -3 0 -7z"/>
<path d="M941 3496 c-9 -11 -9 -16 1 -22 7 -4 10 -4 6 1 -4 4 -3 14 3 22 6 7
9 13 6 13 -2 0 -10 -6 -16 -14z"/>
<path d="M2291 3493 c7 -12 15 -20 18 -17 3 2 -3 12 -13 22 -17 16 -18 16 -5
-5z"/>
<path d="M2730 3400 c-6 -11 -8 -20 -6 -20 3 0 10 9 16 20 6 11 8 20 6 20 -3
0 -10 -9 -16 -20z"/>
<path d="M2405 3380 c3 -5 8 -10 11 -10 2 0 4 5 4 10 0 6 -5 10 -11 10 -5 0
-7 -4 -4 -10z"/>
<path d="M4390 2796 c0 -2 8 -10 18 -17 15 -13 16 -12 3 4 -13 16 -21 21 -21
13z"/>
<path d="M1840 2510 c-8 -5 -12 -12 -9 -15 4 -3 12 1 19 10 14 17 11 19 -10 5z"/>
<path d="M4405 2380 c3 -5 8 -10 11 -10 2 0 4 5 4 10 0 6 -5 10 -11 10 -5 0
-7 -4 -4 -10z"/>
<path d="M4375 2221 c-3 -5 -2 -12 3 -15 5 -3 9 1 9 9 0 17 -3 19 -12 6z"/>
<path d="M2449 1793 c-13 -16 -12 -17 4 -4 9 7 17 15 17 17 0 8 -8 3 -21 -13z"/>
<path d="M900 1706 c0 -2 7 -9 15 -16 13 -11 14 -10 9 4 -5 14 -24 23 -24 12z"/>
<path d="M2206 1555 c-11 -8 -15 -15 -9 -15 6 0 16 7 23 15 16 19 11 19 -14 0z"/>
<path d="M4080 1509 c0 -5 5 -7 10 -4 6 3 10 8 10 11 0 2 -4 4 -10 4 -5 0 -10
-5 -10 -11z"/>
<path d="M1660 1486 c0 -2 7 -7 16 -10 8 -3 12 -2 9 4 -6 10 -25 14 -25 6z"/>
<path d="M4900 3376 c0 -2 7 -7 16 -10 8 -3 12 -2 9 4 -6 10 -25 14 -25 6z"/>
<path d="M510 1166 c0 -2 8 -10 18 -17 15 -13 16 -12 3 4 -13 16 -21 21 -21
13z"/>
<path d="M710 906 c0 -2 7 -7 16 -10 8 -3 12 -2 9 4 -6 10 -25 14 -25 6z"/>
</g>
</svg>
